<?xml version="1.0" standalone="no"?>
<!DOCTYPE svg PUBLIC "-//W3C//DTD SVG 20010904//EN"
 "http://www.w3.org/TR/2001/REC-SVG-20010904/DTD/svg10.dtd">
<svg version="1.0" xmlns="http://www.w3.org/2000/svg"
 width="1198.000000pt" height="1280.000000pt" viewBox="0 0 1198.000000 1280.000000"
 preserveAspectRatio="xMidYMid meet">
<g transform="translate(0.000000,1280.000000) scale(0.100000,-0.100000)"
fill="#000000" stroke="none">
<path d="M3910 12785 c-184 -52 -298 -220 -360 -532 -55 -277 -100 -353 -255
-431 -94 -48 -152 -68 -425 -147 -319 -92 -373 -113 -634 -244 -298 -151 -582
-321 -856 -512 -166 -115 -162 -114 -335 -114 -137 1 -168 4 -360 44 -388 80
-543 57 -629 -92 -29 -49 -56 -149 -56 -204 0 -59 27 -150 70 -238 66 -133
186 -280 444 -544 287 -293 304 -313 616 -691 288 -350 405 -484 562 -645
l117 -121 -94 -72 c-140 -109 -264 -242 -308 -331 -63 -126 -48 -235 45 -316
75 -66 123 -85 217 -85 108 0 116 -7 125 -128 9 -123 28 -180 77 -236 72 -82
183 -129 381 -161 60 -9 86 -56 118 -217 14 -72 61 -134 126 -170 51 -28 179
-48 303 -48 84 0 96 -17 103 -148 5 -79 11 -109 32 -150 68 -133 170 -182 387
-182 54 0 92 -5 103 -13 21 -15 35 -78 36 -162 1 -97 60 -207 135 -250 48 -28
67 -32 214 -45 62 -6 121 -15 131 -20 12 -6 21 -31 29 -72 16 -90 104 -269
157 -318 46 -42 75 -50 246 -68 53 -6 105 -15 116 -21 13 -7 25 -32 36 -75 20
-80 89 -239 123 -285 34 -45 106 -89 157 -96 22 -3 79 -7 126 -8 51 -2 94 -9
108 -18 32 -20 59 -81 76 -171 32 -166 82 -208 309 -259 136 -31 198 -57 216
-93 6 -11 18 -50 26 -85 40 -159 113 -223 320 -286 110 -33 177 -66 197 -97 9
-13 23 -53 32 -88 40 -154 114 -221 331 -300 168 -61 198 -85 216 -169 33
-163 118 -240 334 -306 178 -54 200 -75 225 -213 21 -115 44 -165 98 -214 46
-42 86 -52 260 -67 165 -15 164 -14 183 -141 25 -164 38 -201 92 -257 38 -41
94 -58 260 -78 135 -17 175 -27 182 -47 2 -7 11 -59 19 -116 19 -123 46 -190
96 -236 47 -42 76 -51 255 -78 165 -24 183 -30 189 -60 2 -13 11 -69 20 -126
17 -109 37 -160 87 -217 40 -45 94 -60 264 -74 79 -7 138 -17 151 -26 16 -10
26 -32 34 -72 36 -182 69 -257 139 -310 53 -41 116 -60 259 -75 130 -15 111 2
190 -168 30 -65 62 -117 83 -136 94 -86 206 -67 369 63 90 72 128 116 307 354
76 101 325 406 553 677 524 624 494 586 532 657 28 51 33 70 33 130 0 57 -5
79 -25 115 -14 25 -1129 1556 -2478 3403 -1348 1847 -2456 3366 -2461 3375 -5
10 -4 58 2 119 l10 103 -38 117 c-25 76 -85 211 -169 378 -72 143 -156 312
-186 375 -68 144 -151 268 -226 342 -78 76 -114 102 -204 148 -154 78 -293
202 -427 383 -117 158 -188 283 -408 717 -205 402 -273 523 -373 664 -191 267
-532 524 -797 601 -84 24 -216 29 -285 10z m600 -501 c258 -213 449 -501 575
-869 55 -161 96 -257 181 -428 122 -243 253 -463 322 -539 19 -21 33 -38 31
-38 -2 1 -33 9 -69 19 -43 12 -66 24 -68 35 -3 12 4 16 24 16 26 0 26 2 -27
58 -121 126 -157 192 -258 470 -28 75 -78 205 -112 287 -33 83 -81 201 -105
264 -106 273 -289 534 -500 712 -48 41 -99 85 -113 97 l-26 24 35 -23 c19 -12
69 -51 110 -85z m-483 -29 c-9 -16 -47 -95 -86 -175 -38 -80 -84 -164 -103
-188 -38 -50 -120 -108 -163 -117 -26 -6 -25 -3 13 17 93 51 153 131 233 311
67 150 112 228 117 202 3 -10 -3 -33 -11 -50z m303 -1286 c32 -6 19 -7 -46 -3
-50 3 -118 1 -150 -5 -33 -6 -122 -20 -199 -31 -405 -62 -917 -253 -1263 -474
-138 -88 -121 -67 24 30 384 255 878 432 1323 473 63 6 117 14 120 17 3 3 -25
4 -64 0 -103 -8 -292 -16 -275 -10 72 21 421 24 530 3z m-562 -16 c-10 -2 -26
-2 -35 0 -10 3 -2 5 17 5 19 0 27 -2 18 -5z m-70 -10 c-10 -2 -26 -2 -35 0
-10 3 -2 5 17 5 19 0 27 -2 18 -5z m-61 -9 c-3 -3 -12 -4 -19 -1 -8 3 -5 6 6
6 11 1 17 -2 13 -5z m596 -195 c139 -21 220 -51 307 -114 84 -61 133 -150 151
-273 l9 -64 -64 -92 c-73 -104 -120 -150 -184 -178 -72 -32 -225 -67 -455
-103 -300 -48 -410 -77 -548 -146 -96 -48 -141 -82 -319 -245 -249 -227 -350
-296 -480 -330 -117 -30 -223 7 -319 112 -208 227 -182 480 76 754 318 338
923 614 1498 683 69 9 261 6 328 -4z m-3513 -164 c102 -31 221 -62 265 -69 44
-8 66 -14 48 -15 -52 -2 -178 26 -314 69 -214 67 -312 81 -394 55 -15 -5 -13
-2 5 10 20 13 43 15 115 11 71 -4 129 -17 275 -61z m1498 -177 c-123 -141
-180 -246 -199 -369 -6 -40 -15 -82 -19 -94 -14 -37 -23 46 -11 111 19 106 80
210 187 323 53 56 98 101 100 101 3 0 -24 -33 -58 -72z m3182 63 c0 -5 -9 -7
-20 -4 -11 3 -20 7 -20 9 0 2 9 4 20 4 11 0 20 -4 20 -9z m-2840 -75 c0 -2 -8
-10 -17 -17 -16 -13 -17 -12 -4 4 13 16 21 21 21 13z m3275 -74 c-3 -3 -11 0
-18 7 -9 10 -8 11 6 5 10 -3 15 -9 12 -12z m161 -67 c111 -55 145 -77 212
-140 135 -127 235 -303 352 -620 35 -93 89 -236 120 -318 41 -107 55 -156 52
-180 l-5 -32 -10 30 c-55 172 -233 598 -347 830 -132 268 -158 296 -393 423
-72 40 -128 72 -123 72 5 0 69 -29 142 -65z m-1606 -380 c-19 -7 -42 -13 -50
-13 -8 0 1 6 20 13 19 7 42 13 50 13 8 0 -1 -6 -20 -13z m-73 -21 c-3 -3 -12
-4 -19 -1 -8 3 -5 6 6 6 11 1 17 -2 13 -5z m-40 -10 c-3 -3 -12 -4 -19 -1 -8
3 -5 6 6 6 11 1 17 -2 13 -5z m-2210 -116 c-3 -7 -5 -2 -5 12 0 14 2 19 5 13
2 -7 2 -19 0 -25z m23 -259 c23 -69 63 -144 118 -224 l34 -50 -51 54 c-95 98
-142 227 -139 381 l1 85 8 -91 c4 -51 18 -120 29 -155z m975 -155 c-101 -91
-166 -144 -211 -170 -53 -31 -166 -74 -192 -73 -9 0 -1 6 18 13 98 36 231 119
354 220 82 67 101 73 31 10z m3635 -384 c-34 -47 -160 -131 -325 -216 -82 -43
-178 -95 -212 -115 -70 -43 -172 -96 -160 -83 13 13 701 443 710 444 5 0 -1
-14 -13 -30z m-1478 -297 c16 -5 -67 -8 -200 -8 -214 0 -323 -11 -420 -41 -15
-5 -15 -4 -1 5 13 8 164 41 254 55 46 7 336 -2 367 -11z m-1342 -353 c-30 -16
-59 -29 -65 -29 -5 0 15 13 45 29 30 16 60 29 65 29 6 0 -15 -13 -45 -29z"/>
</g>
</svg>
