<svg xmlns="http://www.w3.org/2000/svg" viewBox="0 0 215.93 103.16"><defs><style>.cls-1{fill:#0b1051;stroke:#000;stroke-width:1.05px;}.cls-1,.cls-2{stroke-miterlimit:10;}.cls-2{fill:#fff;stroke:#fff;stroke-width:1.09px;}</style></defs><title>toolshedicon</title><g id="Layer_2" data-name="Layer 2"><polygon class="cls-1" points="107.96 0.58 1.21 50.92 107.96 102.58 214.71 51.58 107.96 0.58"/><path class="cls-2" d="M154.27,113.4V80.68h-5.1V79H162v1.71h-5.1V113.4Z" transform="translate(-108.29 -45.42)"/><path class="cls-2" d="M171.66,113.29a6.71,6.71,0,0,1-2.68-.59,4.76,4.76,0,0,1-1.7-1.28,5.38,5.38,0,0,1-.93-2.11,14.94,14.94,0,0,1-.41-2.62c-.05-.84-.08-2-.08-3.32V88.79c0-1.38,0-2.48.08-3.32a14.79,14.79,0,0,1,.41-2.62,5.26,5.26,0,0,1,.93-2.1,5,5,0,0,1,1.7-1.26,7.24,7.24,0,0,1,2.68-.63,8.78,8.78,0,0,1,2.3.4,3.65,3.65,0,0,1,1.59,1,6.48,6.48,0,0,1,1,1.43,6.83,6.83,0,0,1,.58,2A21.86,21.86,0,0,1,177.4,86c0,.75.06,1.68.06,2.8v14.58c0,1.35,0,2.45-.08,3.3a15,15,0,0,1-.41,2.64,5.11,5.11,0,0,1-.95,2.11,5,5,0,0,1-1.69,1.28A6.62,6.62,0,0,1,171.66,113.29Zm0-2.13a2.86,2.86,0,0,0,2.73-1.59q.66-1.48.66-6.2V88.79q0-4.73-.66-6.21a3.13,3.13,0,0,0-5.45,0q-.66,1.48-.66,6.21v14.58q0,4.71.66,6.2A2.84,2.84,0,0,0,171.66,111.16Z" transform="translate(-108.29 -45.42)"/><path class="cls-2" d="M188.71,113.29a6.77,6.77,0,0,1-2.69-.59,4.72,4.72,0,0,1-1.69-1.28,5.38,5.38,0,0,1-.93-2.11,14.06,14.06,0,0,1-.41-2.62c-.06-.84-.08-2-.08-3.32V88.79c0-1.38,0-2.48.08-3.32a13.93,13.93,0,0,1,.41-2.62,5.26,5.26,0,0,1,.93-2.1A4.92,4.92,0,0,1,186,79.49a7.29,7.29,0,0,1,2.69-.63,8.63,8.63,0,0,1,2.29.4,3.74,3.74,0,0,1,1.6,1,6.78,6.78,0,0,1,1,1.43,6.51,6.51,0,0,1,.59,2,21.86,21.86,0,0,1,.25,2.32c0,.75.06,1.68.06,2.8v14.58c0,1.35,0,2.45-.08,3.3a15,15,0,0,1-.41,2.64,5.24,5.24,0,0,1-1,2.11,4.94,4.94,0,0,1-1.7,1.28A6.57,6.57,0,0,1,188.71,113.29Zm0-2.13a2.84,2.84,0,0,0,2.72-1.59q.66-1.48.66-6.2V88.79q0-4.73-.66-6.21a3.13,3.13,0,0,0-5.45,0q-.66,1.48-.66,6.21v14.58q0,4.71.66,6.2A2.85,2.85,0,0,0,188.71,111.16Z" transform="translate(-108.29 -45.42)"/><path class="cls-2" d="M201.28,113.29l-.16-34.46h2.61v32.75H212v1.71Z" transform="translate(-108.29 -45.42)"/><path class="cls-2" d="M222,113.29a5.73,5.73,0,0,1-3.81-1.22,4,4,0,0,1-1.52-3.35V104h2.61v4.76a2.12,2.12,0,0,0,.7,1.71,3.37,3.37,0,0,0,2.14.59h.23l2.73,0a2.62,2.62,0,0,0,1.69-.65,1.94,1.94,0,0,0,.68-1.49v-5.73q0-2.31-3.74-5.56h0l-2.22-2.34a16.09,16.09,0,0,1-3.28-3.77,7,7,0,0,1-1.19-3.61V83.27a3.93,3.93,0,0,1,1.44-3.08,5.45,5.45,0,0,1,3.5-1.33h2.06a6.69,6.69,0,0,1,.9,0,6.9,6.9,0,0,1,1.52.33,5.07,5.07,0,0,1,1.67.86,4.21,4.21,0,0,1,1.48,3.39v4.75h-2.57l0-4.75a2.17,2.17,0,0,0-.66-1.75,2.74,2.74,0,0,0-.89-.44,2.62,2.62,0,0,0-.86-.13H222.1a2.65,2.65,0,0,0-1.71.65,1.89,1.89,0,0,0-.7,1.49v4.57a5.19,5.19,0,0,0,1,2.75,14.82,14.82,0,0,0,2.72,3.06l.08.07,2.41,2.51c2.78,2.5,4.17,4.79,4.17,6.89v5.73a3.93,3.93,0,0,1-1.44,3.08,5.46,5.46,0,0,1-3.51,1.33l-2.8,0Z" transform="translate(-108.29 -45.42)"/><path class="cls-2" d="M237.08,113.29V78.86h2.61v23.6h7.08V78.86h2.61v34.43h-2.57v-9.12h-7.12v9.12Z" transform="translate(-108.29 -45.42)"/><path class="cls-2" d="M256.43,113.26l0-34.47h10.89V80.5H259v21.71h7v1.72h-7l0,7.62h8.25v1.71Z" transform="translate(-108.29 -45.42)"/><path class="cls-2" d="M274.29,113.26V78.83l2.53,0h1.56a8.64,8.64,0,0,1,3.13.49,5.21,5.21,0,0,1,2,1.24,4.92,4.92,0,0,1,1.07,2.2,15.31,15.31,0,0,1,.47,2.8c.07.9.1,2.09.1,3.58v18a8.12,8.12,0,0,1-.33,1.85,8.7,8.7,0,0,1-.88,2,4.57,4.57,0,0,1-1.69,1.63,5,5,0,0,1-2.55.64h-2.84v0Zm2.53-2.27h2.84q2.44,0,3-3.95V89.17a26.15,26.15,0,0,0-.39-5.33A3.54,3.54,0,0,0,281,81.6a4.94,4.94,0,0,0-2.64-.54h-1.56Z" transform="translate(-108.29 -45.42)"/></g></svg>